<mxfile host="app.diagrams.net" modified="2020-12-28T00:33:01.646Z" agent="5.0 (Windows NT 10.0; Win64; x64) AppleWebKit/537.36 (KHTML, like Gecko) Chrome/87.0.4280.88 Safari/537.36" etag="OHpvxPa49Y5j6B4BvOCU" version="14.0.1" type="github">
  <diagram id="x4kDyp667V7Vz_rp1WIJ" name="Page-1">
    <mxGraphModel dx="782" dy="469" grid="1" gridSize="10" guides="1" tooltips="1" connect="1" arrows="1" fold="1" page="1" pageScale="1" pageWidth="827" pageHeight="1169" math="0" shadow="0">
      <root>
        <mxCell id="0" />
        <mxCell id="1" parent="0" />
        <mxCell id="rie95BTHwvW-ylOj8RGJ-9" style="edgeStyle=orthogonalEdgeStyle;rounded=0;orthogonalLoop=1;jettySize=auto;html=1;exitX=0.5;exitY=1;exitDx=0;exitDy=0;entryX=0.5;entryY=0;entryDx=0;entryDy=0;" edge="1" parent="1" source="rie95BTHwvW-ylOj8RGJ-1" target="rie95BTHwvW-ylOj8RGJ-2">
          <mxGeometry relative="1" as="geometry" />
        </mxCell>
        <mxCell id="rie95BTHwvW-ylOj8RGJ-1" value="" style="ellipse;whiteSpace=wrap;html=1;" vertex="1" parent="1">
          <mxGeometry x="280" y="20" width="120" height="80" as="geometry" />
        </mxCell>
        <mxCell id="rie95BTHwvW-ylOj8RGJ-10" style="edgeStyle=orthogonalEdgeStyle;rounded=0;orthogonalLoop=1;jettySize=auto;html=1;exitX=0.5;exitY=1;exitDx=0;exitDy=0;entryX=0.5;entryY=0;entryDx=0;entryDy=0;" edge="1" parent="1" source="rie95BTHwvW-ylOj8RGJ-2" target="rie95BTHwvW-ylOj8RGJ-3">
          <mxGeometry relative="1" as="geometry" />
        </mxCell>
        <mxCell id="rie95BTHwvW-ylOj8RGJ-2" value="" style="rounded=0;whiteSpace=wrap;html=1;" vertex="1" parent="1">
          <mxGeometry x="280" y="130" width="120" height="80" as="geometry" />
        </mxCell>
        <mxCell id="rie95BTHwvW-ylOj8RGJ-11" style="edgeStyle=orthogonalEdgeStyle;rounded=0;orthogonalLoop=1;jettySize=auto;html=1;exitX=0.5;exitY=1;exitDx=0;exitDy=0;entryX=0.5;entryY=0;entryDx=0;entryDy=0;" edge="1" parent="1" source="rie95BTHwvW-ylOj8RGJ-3" target="rie95BTHwvW-ylOj8RGJ-4">
          <mxGeometry relative="1" as="geometry" />
        </mxCell>
        <mxCell id="rie95BTHwvW-ylOj8RGJ-14" style="edgeStyle=orthogonalEdgeStyle;rounded=0;orthogonalLoop=1;jettySize=auto;html=1;exitX=0;exitY=0.5;exitDx=0;exitDy=0;entryX=0;entryY=0.5;entryDx=0;entryDy=0;" edge="1" parent="1" source="rie95BTHwvW-ylOj8RGJ-3" target="rie95BTHwvW-ylOj8RGJ-8">
          <mxGeometry relative="1" as="geometry">
            <Array as="points">
              <mxPoint x="220" y="280" />
              <mxPoint x="220" y="780" />
            </Array>
          </mxGeometry>
        </mxCell>
        <mxCell id="rie95BTHwvW-ylOj8RGJ-3" value="" style="shape=hexagon;perimeter=hexagonPerimeter2;whiteSpace=wrap;html=1;fixedSize=1;" vertex="1" parent="1">
          <mxGeometry x="260" y="240" width="160" height="80" as="geometry" />
        </mxCell>
        <mxCell id="rie95BTHwvW-ylOj8RGJ-12" style="edgeStyle=orthogonalEdgeStyle;rounded=0;orthogonalLoop=1;jettySize=auto;html=1;exitX=0.5;exitY=1;exitDx=0;exitDy=0;entryX=0.5;entryY=0;entryDx=0;entryDy=0;" edge="1" parent="1" source="rie95BTHwvW-ylOj8RGJ-4" target="rie95BTHwvW-ylOj8RGJ-5">
          <mxGeometry relative="1" as="geometry" />
        </mxCell>
        <mxCell id="rie95BTHwvW-ylOj8RGJ-15" style="edgeStyle=orthogonalEdgeStyle;rounded=0;orthogonalLoop=1;jettySize=auto;html=1;exitX=0;exitY=0.5;exitDx=0;exitDy=0;entryX=0;entryY=0.5;entryDx=0;entryDy=0;" edge="1" parent="1" source="rie95BTHwvW-ylOj8RGJ-4" target="rie95BTHwvW-ylOj8RGJ-7">
          <mxGeometry relative="1" as="geometry" />
        </mxCell>
        <mxCell id="rie95BTHwvW-ylOj8RGJ-4" value="" style="rhombus;whiteSpace=wrap;html=1;" vertex="1" parent="1">
          <mxGeometry x="280" y="350" width="120" height="80" as="geometry" />
        </mxCell>
        <mxCell id="rie95BTHwvW-ylOj8RGJ-13" style="edgeStyle=orthogonalEdgeStyle;rounded=0;orthogonalLoop=1;jettySize=auto;html=1;exitX=0.5;exitY=1;exitDx=0;exitDy=0;entryX=0.5;entryY=0;entryDx=0;entryDy=0;" edge="1" parent="1" source="rie95BTHwvW-ylOj8RGJ-5" target="rie95BTHwvW-ylOj8RGJ-6">
          <mxGeometry relative="1" as="geometry" />
        </mxCell>
        <mxCell id="rie95BTHwvW-ylOj8RGJ-5" value="" style="rounded=0;whiteSpace=wrap;html=1;" vertex="1" parent="1">
          <mxGeometry x="280" y="460" width="120" height="60" as="geometry" />
        </mxCell>
        <mxCell id="rie95BTHwvW-ylOj8RGJ-17" style="edgeStyle=orthogonalEdgeStyle;rounded=0;orthogonalLoop=1;jettySize=auto;html=1;exitX=1;exitY=0.5;exitDx=0;exitDy=0;entryX=1;entryY=0.5;entryDx=0;entryDy=0;" edge="1" parent="1" source="rie95BTHwvW-ylOj8RGJ-6" target="rie95BTHwvW-ylOj8RGJ-4">
          <mxGeometry relative="1" as="geometry">
            <Array as="points">
              <mxPoint x="440" y="600" />
              <mxPoint x="440" y="390" />
            </Array>
          </mxGeometry>
        </mxCell>
        <mxCell id="rie95BTHwvW-ylOj8RGJ-18" style="edgeStyle=orthogonalEdgeStyle;rounded=0;orthogonalLoop=1;jettySize=auto;html=1;exitX=0.5;exitY=1;exitDx=0;exitDy=0;entryX=0.5;entryY=0;entryDx=0;entryDy=0;" edge="1" parent="1" source="rie95BTHwvW-ylOj8RGJ-6" target="rie95BTHwvW-ylOj8RGJ-7">
          <mxGeometry relative="1" as="geometry" />
        </mxCell>
        <mxCell id="rie95BTHwvW-ylOj8RGJ-6" value="" style="rhombus;whiteSpace=wrap;html=1;" vertex="1" parent="1">
          <mxGeometry x="280" y="560" width="120" height="80" as="geometry" />
        </mxCell>
        <mxCell id="rie95BTHwvW-ylOj8RGJ-16" style="edgeStyle=orthogonalEdgeStyle;rounded=0;orthogonalLoop=1;jettySize=auto;html=1;exitX=1;exitY=0.5;exitDx=0;exitDy=0;entryX=1;entryY=0.5;entryDx=0;entryDy=0;" edge="1" parent="1" source="rie95BTHwvW-ylOj8RGJ-7" target="rie95BTHwvW-ylOj8RGJ-3">
          <mxGeometry relative="1" as="geometry">
            <Array as="points">
              <mxPoint x="460" y="690" />
              <mxPoint x="460" y="280" />
            </Array>
          </mxGeometry>
        </mxCell>
        <mxCell id="rie95BTHwvW-ylOj8RGJ-7" value="" style="rounded=0;whiteSpace=wrap;html=1;" vertex="1" parent="1">
          <mxGeometry x="280" y="660" width="120" height="60" as="geometry" />
        </mxCell>
        <mxCell id="rie95BTHwvW-ylOj8RGJ-8" value="" style="ellipse;whiteSpace=wrap;html=1;" vertex="1" parent="1">
          <mxGeometry x="280" y="740" width="120" height="80" as="geometry" />
        </mxCell>
        <mxCell id="rie95BTHwvW-ylOj8RGJ-19" value="Начало" style="text;html=1;strokeColor=none;fillColor=none;align=center;verticalAlign=middle;whiteSpace=wrap;rounded=0;" vertex="1" parent="1">
          <mxGeometry x="280" y="50" width="120" height="20" as="geometry" />
        </mxCell>
        <mxCell id="rie95BTHwvW-ylOj8RGJ-20" value="int y[10], int i, j, t;&lt;br&gt;int nn = sizeof(y) / sizeof(int);&lt;br&gt;j = 2;" style="text;html=1;strokeColor=none;fillColor=none;align=center;verticalAlign=middle;whiteSpace=wrap;rounded=0;" vertex="1" parent="1">
          <mxGeometry x="280" y="130" width="120" height="80" as="geometry" />
        </mxCell>
        <mxCell id="rie95BTHwvW-ylOj8RGJ-21" value="i = 1; i &amp;lt; nn; i" style="text;html=1;strokeColor=none;fillColor=none;align=center;verticalAlign=middle;whiteSpace=wrap;rounded=0;" vertex="1" parent="1">
          <mxGeometry x="270" y="260" width="140" height="40" as="geometry" />
        </mxCell>
        <mxCell id="rie95BTHwvW-ylOj8RGJ-22" value="y[i - 1] &amp;lt; y[i]" style="text;html=1;strokeColor=none;fillColor=none;align=center;verticalAlign=middle;whiteSpace=wrap;rounded=0;" vertex="1" parent="1">
          <mxGeometry x="300" y="380" width="80" height="20" as="geometry" />
        </mxCell>
        <mxCell id="rie95BTHwvW-ylOj8RGJ-23" value="&lt;div&gt;t = y[i];&lt;/div&gt;&lt;div&gt;&lt;span&gt;			&lt;/span&gt;y[i] = y[i - 1];&lt;/div&gt;&lt;div&gt;&lt;span&gt;			&lt;/span&gt;y[i - 1] = t;&lt;/div&gt;&lt;div&gt;&lt;span&gt;			&lt;/span&gt;i--;&lt;/div&gt;" style="text;html=1;strokeColor=none;fillColor=none;align=center;verticalAlign=middle;whiteSpace=wrap;rounded=0;" vertex="1" parent="1">
          <mxGeometry x="280" y="460" width="120" height="60" as="geometry" />
        </mxCell>
        <mxCell id="rie95BTHwvW-ylOj8RGJ-24" value="(i &amp;gt; 0)" style="text;html=1;strokeColor=none;fillColor=none;align=center;verticalAlign=middle;whiteSpace=wrap;rounded=0;" vertex="1" parent="1">
          <mxGeometry x="300" y="590" width="80" height="20" as="geometry" />
        </mxCell>
        <mxCell id="rie95BTHwvW-ylOj8RGJ-25" value="i = j++;" style="text;html=1;strokeColor=none;fillColor=none;align=center;verticalAlign=middle;whiteSpace=wrap;rounded=0;" vertex="1" parent="1">
          <mxGeometry x="280" y="660" width="120" height="60" as="geometry" />
        </mxCell>
        <mxCell id="rie95BTHwvW-ylOj8RGJ-26" value="Конец" style="text;html=1;strokeColor=none;fillColor=none;align=center;verticalAlign=middle;whiteSpace=wrap;rounded=0;" vertex="1" parent="1">
          <mxGeometry x="290" y="770" width="100" height="20" as="geometry" />
        </mxCell>
      </root>
    </mxGraphModel>
  </diagram>
</mxfile>
